# xmcd
#
# Track frame offsets:
#	150
#	18016
#	34570
#	48239
#	60679
#	74857
#	88501
#	103058
#	116344
#	140033
#	153754
#
# Disc length: 2196 seconds
#
# Revision: 1
# Processed by: cddbd v1.5.2PL0 Copyright (c) Steve Scherf et al.
# Submitted via: audiograbber 1.83.01
#
DISCID=8c08920b
DTITLE=Omar And The Howlers - Zoltar's Walk
DYEAR=2017
DGENRE=Blues
TTITLE0=Under My Spell
TTITLE1=Keep Your Big Mouth Shut
TTITLE2=What Can I Do
TTITLE3=Zoltar's Walk
TTITLE4=Stay Out Of My Yard
TTITLE5=Soapbox Shouter
TTITLE6=Meaning Of The Blues
TTITLE7=Big Chief Pontiac
TTITLE8=Always Been A Drifter
TTITLE9=Mr. Freeze
TTITLE10=Hoo Doo
EXTD=
EXTT0=
EXTT1=
EXTT2=
EXTT3=
EXTT4=
EXTT5=
EXTT6=
EXTT7=
EXTT8=
EXTT9=
EXTT10=
PLAYORDER=
